<?xml version="1.0" encoding="utf-8"?>
<!-- Generator: Adobe Illustrator 17.0.0, SVG Export Plug-In . SVG Version: 6.00 Build 0)  -->
<!DOCTYPE svg PUBLIC "-//W3C//DTD SVG 1.1//EN" "http://www.w3.org/Graphics/SVG/1.1/DTD/svg11.dtd">
<svg version="1.1" id="Capa_1" xmlns="http://www.w3.org/2000/svg" xmlns:xlink="http://www.w3.org/1999/xlink" x="0px" y="0px"
	 width="83.715px" height="116.931px" viewBox="0 0 83.715 116.931" enable-background="new 0 0 83.715 116.931"
	 xml:space="preserve">
<polygon fill="#0E3B68" points="72.096,12.231 57.01,37.864 48.465,37.864 40.997,25.165 48.604,12.231 "/>
<path fill="#FE642E" d="M25.367,55.188c-0.394,0.277-0.788,0.565-1.161,0.874c0.682-0.597,1.406-1.151,2.152-1.673
	C26.017,54.644,25.687,54.911,25.367,55.188z"/>
<path fill="#FE642E" d="M40.997,44.576C23.844,44.576,9.94,58.48,9.94,75.633c0,17.164,13.904,31.067,31.057,31.067
	s31.057-13.904,31.057-31.067C72.054,58.48,58.15,44.576,40.997,44.576z"/>
<path fill="#FE642E" d="M25.367,55.188c-0.394,0.277-0.788,0.565-1.161,0.874c0.682-0.597,1.406-1.151,2.152-1.673
	C26.017,54.644,25.687,54.911,25.367,55.188z"/>
<path fill="#FE642E" d="M68.41,39.495c0,0.906-0.725,1.63-1.63,1.63H15.214c-0.906,0-1.63-0.725-1.63-1.63
	c0-0.448,0.181-0.853,0.479-1.151c0.288-0.298,0.703-0.48,1.151-0.48h9.77L9.897,12.231H33.39l7.607,12.934l7.469,12.7H66.78
	c0.448,0,0.863,0.181,1.15,0.48C68.229,38.642,68.41,39.047,68.41,39.495z"/>
<path fill="#EBCDC1" d="M60.654,92.328c-1.087,1.385-2.323,2.653-3.676,3.793c-4.496,3.772-10.292,6.041-16.62,6.041
	c-14.298,0-25.89-11.592-25.89-25.879c0-8.182,3.803-15.491,9.738-20.221c-5.508,4.73-9.003,11.741-9.003,19.571
	c0,14.255,11.549,25.804,25.794,25.804c4.603,0,8.917-1.204,12.657-3.324C56.328,96.611,58.693,94.651,60.654,92.328z"/>
<path fill="#092642" d="M67.909,74.994c0,8.726-4.315,16.439-10.931,21.127c1.353-1.14,2.589-2.408,3.676-3.793
	c3.835-4.507,6.137-10.324,6.137-16.695c0-14.244-11.549-25.794-25.794-25.794c-5.434,0-10.473,1.683-14.639,4.549
	c4.347-3.303,9.78-5.274,15.672-5.274C56.317,49.115,67.909,60.696,67.909,74.994z"/>
<path fill="#092642" d="M60.654,92.328c-1.087,1.385-2.323,2.653-3.676,3.793c-1.044,0.746-2.163,1.417-3.324,1.992
	C56.328,96.611,58.693,94.651,60.654,92.328z"/>
<path fill="#0E3B68" d="M66.79,75.633c0,6.371-2.301,12.188-6.137,16.695c-1.96,2.323-4.326,4.283-7,5.785
	c-3.74,2.12-8.055,3.324-12.657,3.324c-14.245,0-25.794-11.549-25.794-25.804c0-7.831,3.495-14.841,9.003-19.571
	c0.373-0.309,0.767-0.597,1.161-0.874c0.32-0.277,0.65-0.544,0.991-0.799c4.166-2.866,9.205-4.549,14.639-4.549
	C55.241,49.84,66.79,61.389,66.79,75.633z"/>
<path fill="#0E3B68" d="M26.358,54.389c-0.341,0.256-0.671,0.522-0.991,0.799c-0.394,0.277-0.788,0.565-1.161,0.874
	C24.888,55.465,25.612,54.911,26.358,54.389z"/>
<path fill="#092642" d="M50.894,85.467c-0.341,0.309-0.724,0.565-1.14,0.788c0.192-0.117,0.373-0.256,0.544-0.405
	c0,0,0.011-0.01,0.021-0.01C50.522,85.733,50.713,85.605,50.894,85.467z"/>
<path fill="#EBCDC1" d="M50.894,85.467c-0.341,0.309-0.724,0.565-1.14,0.788c0.192-0.117,0.373-0.256,0.544-0.405
	c0,0,0.011-0.01,0.021-0.01C50.522,85.733,50.713,85.605,50.894,85.467z"/>
<path fill="#092642" d="M47.091,89.718c-0.991,0.021-1.971-0.085-2.93-0.33c-0.959-0.256-1.822-0.565-2.578-0.927
	c-0.511-0.256-0.937-0.522-1.278-0.788c-0.149,0.107-0.309,0.213-0.469,0.32l0.021,0.021c0.33,0.256,0.735,0.501,1.214,0.746
	c0.767,0.373,1.62,0.682,2.578,0.927c0.959,0.256,1.939,0.362,2.941,0.341c1.257-0.032,2.418-0.245,3.484-0.65
	c0.596-0.234,1.151-0.511,1.651-0.852c-0.362,0.213-0.746,0.394-1.151,0.543C49.52,89.473,48.348,89.697,47.091,89.718z"/>
<path fill="#092642" d="M53.473,66.428c-0.469-0.011-0.906-0.171-1.3-0.458c-0.522-0.362-1.183-0.735-1.971-1.119
	c-0.788-0.384-1.598-0.554-2.44-0.533c-1.119,0-2.045,0.267-2.791,0.799c0.65-0.33,1.406-0.49,2.28-0.49
	c0.842-0.032,1.662,0.149,2.45,0.522c0.788,0.383,1.438,0.756,1.96,1.129c0.394,0.288,0.831,0.437,1.3,0.448
	c0.373,0.021,0.671-0.096,0.884-0.341C53.729,66.417,53.611,66.428,53.473,66.428z"/>
<path fill="#092642" d="M39.516,79.778c-0.298-0.597-0.671-1.119-1.151-1.577c-0.469-0.458-1.001-0.852-1.587-1.183
	c-0.597-0.33-1.183-0.607-1.758-0.842c-1.076-0.426-2.067-0.852-2.994-1.3c-0.916-0.448-1.715-0.959-2.376-1.545
	c-0.671-0.575-1.193-1.257-1.555-2.067c-0.373-0.799-0.554-1.779-0.554-2.93c0-1.044,0.213-2.003,0.629-2.855
	s0.98-1.577,1.673-2.163c0.064-0.053,0.139-0.117,0.203-0.16c0.16-0.138,0.33-0.256,0.511-0.362
	c-0.064,0.032-0.128,0.064-0.181,0.096c-0.011,0.011-0.032,0.021-0.043,0.032c-0.352,0.202-0.682,0.437-0.991,0.692
	c-0.703,0.597-1.257,1.321-1.683,2.174c-0.415,0.852-0.629,1.8-0.629,2.855c0,1.15,0.192,2.131,0.554,2.93
	c0.373,0.799,0.884,1.492,1.555,2.067c0.671,0.575,1.46,1.087,2.387,1.534c0.916,0.447,1.918,0.884,2.994,1.3
	c0.575,0.234,1.161,0.522,1.747,0.852c0.597,0.32,1.119,0.714,1.598,1.172c0.469,0.469,0.853,0.991,1.14,1.577
	c0.288,0.596,0.437,1.257,0.437,1.992c0,0.735-0.16,1.417-0.458,2.046s-0.703,1.172-1.204,1.619
	c-0.032,0.032-0.064,0.064-0.107,0.096h-0.01c-0.011,0.011-0.021,0.011-0.032,0.021c-0.149,0.139-0.298,0.256-0.469,0.362
	c0.415-0.224,0.788-0.479,1.129-0.788c0.021-0.021,0.043-0.032,0.053-0.053c0.479-0.437,0.852-0.948,1.151-1.555
	c0.298-0.639,0.448-1.321,0.448-2.056S39.803,80.364,39.516,79.778z"/>
<path fill="#092642" d="M34.434,89.718c-1.002,0.021-1.982-0.085-2.941-0.33c-0.959-0.256-1.811-0.565-2.578-0.927
	c-1.13-0.575-1.865-1.183-2.206-1.811c-0.341-0.629-0.341-1.183,0-1.651c0.053-0.064,0.107-0.117,0.16-0.171
	c-0.245,0.064-0.458,0.224-0.66,0.469c-0.341,0.469-0.341,1.023,0,1.651c0.341,0.629,1.076,1.236,2.205,1.811
	c0.756,0.373,1.619,0.682,2.578,0.927c0.959,0.256,1.928,0.362,2.93,0.341c1.257-0.032,2.418-0.245,3.484-0.65
	c0.575-0.224,1.097-0.49,1.588-0.81c-0.341,0.192-0.693,0.362-1.076,0.501C36.852,89.473,35.691,89.697,34.434,89.718z"/>
<path fill="#092642" d="M42.009,63.786c0.16-0.171,0.33-0.32,0.501-0.469c0.043-0.043,0.096-0.085,0.149-0.117
	c0.192-0.16,0.384-0.309,0.597-0.426c-0.053,0.021-0.096,0.043-0.138,0.064c-0.043,0.021-0.085,0.053-0.128,0.085
	c-0.352,0.202-0.682,0.437-0.991,0.692l-0.064,0.064c-0.117,0.096-0.213,0.192-0.32,0.298c0.043,0.043,0.075,0.096,0.107,0.138
	C41.817,63.999,41.913,63.892,42.009,63.786z"/>
<path fill="#092642" d="M51.033,78.201c-0.48-0.458-1.002-0.852-1.598-1.183c-0.586-0.33-1.172-0.607-1.747-0.842
	c-1.076-0.426-2.077-0.852-2.994-1.3c-0.927-0.448-1.715-0.959-2.387-1.545c-0.671-0.575-1.183-1.257-1.555-2.067
	c-0.362-0.799-0.554-1.779-0.554-2.93c0-0.554,0.064-1.097,0.192-1.609c0.032-0.107,0.064-0.224,0.096-0.33
	c-0.128-0.021-0.256-0.053-0.373-0.106c-0.213-0.075-0.405-0.181-0.597-0.32c-0.533-0.362-1.183-0.735-1.971-1.119
	c-0.788-0.384-1.609-0.554-2.44-0.533c-1.119,0-2.056,0.267-2.802,0.799c0,0-0.011,0.011-0.021,0.021
	c0.65-0.352,1.417-0.511,2.312-0.511c0.841-0.032,1.651,0.149,2.44,0.522c0.788,0.383,1.449,0.756,1.971,1.129
	c0.298,0.213,0.618,0.352,0.969,0.415c-0.192,0.607-0.277,1.257-0.277,1.95c0,1.15,0.181,2.131,0.554,2.93
	c0.362,0.799,0.884,1.492,1.555,2.067c0.661,0.575,1.46,1.087,2.376,1.534s1.918,0.884,2.994,1.3
	c0.576,0.234,1.162,0.522,1.758,0.852c0.586,0.32,1.119,0.714,1.588,1.172c0.479,0.469,0.852,0.991,1.14,1.577
	c0.298,0.596,0.437,1.257,0.437,1.992c0,0.735-0.149,1.417-0.448,2.046c-0.309,0.629-0.703,1.172-1.204,1.619
	c-0.043,0.032-0.085,0.075-0.128,0.107c0.202-0.107,0.394-0.234,0.575-0.373c0.021-0.011,0.032-0.032,0.053-0.043l0.01-0.011
	c0.501-0.448,0.895-0.97,1.193-1.598c0.298-0.639,0.458-1.321,0.458-2.056s-0.149-1.396-0.437-1.982
	C51.885,79.181,51.502,78.659,51.033,78.201z"/>
<path fill="#EBCDC1" d="M34.913,86.607c-1.097,0-2.12-0.192-3.047-0.565c-0.938-0.384-1.79-0.842-2.578-1.364
	c-0.448-0.288-0.863-0.448-1.246-0.469c-0.33-0.032-0.639,0.106-0.895,0.394c0.181-0.096,0.373-0.138,0.575-0.128
	c0.373,0.032,0.788,0.192,1.236,0.479c0.788,0.522,1.651,0.98,2.578,1.353c0.938,0.384,1.95,0.575,3.058,0.575
	c0.682,0,1.342-0.128,1.982-0.394c0.192-0.085,0.394-0.171,0.565-0.267c0.011,0,0.011-0.011,0.011-0.011
	c0.181-0.106,0.33-0.224,0.479-0.362c-0.224,0.139-0.469,0.256-0.725,0.362C36.266,86.479,35.595,86.607,34.913,86.607z"/>
<path fill="#EBCDC1" d="M55.614,78.574c-0.288-0.788-0.714-1.481-1.257-2.088c-0.554-0.596-1.225-1.14-2.013-1.609
	c-0.788-0.479-1.683-0.938-2.674-1.385c-0.767-0.341-1.502-0.682-2.227-1.023c-0.725-0.341-1.364-0.703-1.907-1.097
	c-0.554-0.394-1.002-0.852-1.342-1.385c-0.341-0.522-0.512-1.151-0.512-1.886c0-1.183,0.394-2.152,1.204-2.909
	c-0.117,0.075-0.224,0.171-0.33,0.266c-0.799,0.767-1.204,1.737-1.204,2.919c0,0.735,0.171,1.364,0.512,1.886
	s0.788,0.991,1.342,1.385c0.554,0.384,1.183,0.757,1.907,1.097c0.725,0.341,1.46,0.682,2.227,1.023
	c0.991,0.447,1.886,0.906,2.674,1.374c0.788,0.479,1.46,1.012,2.013,1.619c0.544,0.607,0.97,1.3,1.257,2.088
	c0.288,0.788,0.437,1.705,0.437,2.759c0,1.151-0.213,2.216-0.629,3.207c-0.426,0.98-1.012,1.832-1.779,2.557
	c0.117-0.075,0.224-0.181,0.33-0.277c0.756-0.714,1.353-1.566,1.769-2.557c0.426-0.98,0.629-2.056,0.629-3.207
	C56.04,80.278,55.902,79.362,55.614,78.574z"/>
<path fill="#EBCDC1" d="M43.277,62.763c0.49-0.341,1.044-0.596,1.63-0.788c0.905-0.298,1.854-0.447,2.855-0.447
	c1.002,0,1.971,0.138,2.919,0.405c0.938,0.277,1.747,0.618,2.418,1.033c0.671,0.405,1.151,0.863,1.438,1.374
	c0.288,0.511,0.288,1.012,0,1.513c-0.032,0.064-0.075,0.128-0.128,0.17c0.181-0.096,0.33-0.245,0.458-0.437
	c0.288-0.501,0.288-1.012,0-1.524c-0.298-0.511-0.778-0.969-1.438-1.374c-0.671-0.405-1.481-0.746-2.429-1.023
	c-0.938-0.277-1.918-0.415-2.909-0.415c-1.002,0-1.95,0.149-2.855,0.447c-0.788,0.266-1.492,0.639-2.12,1.14
	c0.043-0.021,0.085-0.043,0.138-0.064L43.277,62.763z"/>
<path fill="#EBCDC1" d="M30.577,62.774c0.501-0.341,1.076-0.596,1.673-0.799c0.906-0.298,1.854-0.447,2.855-0.447
	c0.991,0,1.96,0.138,2.909,0.405c0.948,0.277,1.758,0.618,2.418,1.033c0.512,0.298,0.906,0.639,1.183,1.012
	c0.107-0.106,0.202-0.202,0.32-0.298c-0.277-0.362-0.671-0.692-1.172-0.991c-0.671-0.405-1.47-0.746-2.418-1.023
	s-1.918-0.415-2.919-0.415c-0.991,0-1.95,0.149-2.855,0.447c-0.82,0.277-1.555,0.671-2.195,1.193
	c0.053-0.032,0.117-0.064,0.181-0.096C30.556,62.795,30.566,62.784,30.577,62.774z"/>
<path fill="#EBCDC1" d="M47.581,86.607c-1.108,0-2.12-0.192-3.058-0.565c-0.714-0.298-1.385-0.629-2.013-1.002
	c0.096-0.16,0.17-0.33,0.245-0.501c0.415-0.98,0.629-2.056,0.629-3.207c0-1.055-0.149-1.971-0.437-2.759
	c-0.288-0.788-0.703-1.481-1.257-2.088c-0.554-0.596-1.225-1.14-2.003-1.609c-0.788-0.479-1.683-0.938-2.685-1.385
	c-0.757-0.341-1.502-0.682-2.227-1.023c-0.714-0.341-1.353-0.703-1.907-1.097s-1.002-0.852-1.342-1.385
	c-0.341-0.522-0.511-1.151-0.511-1.886c0-1.183,0.405-2.152,1.204-2.909c-0.117,0.075-0.224,0.16-0.33,0.266
	c-0.799,0.767-1.193,1.737-1.193,2.919c0,0.735,0.171,1.364,0.511,1.886c0.341,0.522,0.788,0.991,1.332,1.385
	c0.554,0.384,1.193,0.757,1.918,1.097c0.714,0.341,1.46,0.682,2.216,1.023c1.001,0.447,1.896,0.906,2.685,1.374
	c0.788,0.479,1.46,1.012,2.003,1.619c0.554,0.607,0.97,1.3,1.268,2.088c0.288,0.788,0.426,1.705,0.426,2.759
	c0,1.151-0.213,2.216-0.629,3.207c-0.021,0.043-0.043,0.085-0.064,0.128c-0.053,0.128-0.106,0.256-0.17,0.373
	c0.043,0.021,0.085,0.053,0.128,0.075c0.586,0.341,1.215,0.65,1.886,0.916c0.927,0.384,1.939,0.575,3.047,0.575
	c0.682,0,1.342-0.128,1.992-0.394c0.16-0.064,0.32-0.138,0.469-0.213c0.011-0.011,0.032-0.021,0.032-0.021
	c0.203-0.117,0.384-0.256,0.554-0.405c-0.234,0.139-0.48,0.256-0.735,0.362C48.923,86.479,48.263,86.607,47.581,86.607z"/>
<path fill="#FE642E" d="M55.284,78.851c-0.288-0.788-0.714-1.481-1.257-2.088c-0.554-0.607-1.225-1.14-2.013-1.619
	c-0.788-0.469-1.684-0.927-2.674-1.374c-0.767-0.341-1.502-0.682-2.227-1.023c-0.725-0.341-1.353-0.714-1.907-1.097
	c-0.554-0.394-1.002-0.863-1.342-1.385c-0.341-0.522-0.512-1.151-0.512-1.886c0-1.183,0.405-2.152,1.204-2.919
	c0.107-0.096,0.213-0.192,0.33-0.266c0.011-0.011,0.011-0.021,0.011-0.021s0.021,0,0.021-0.01c0.021-0.011,0.032-0.021,0.043-0.032
	c0-0.011,0.011-0.011,0.011-0.011c0.746-0.533,1.673-0.799,2.791-0.799c0.842-0.021,1.651,0.149,2.44,0.533
	c0.788,0.383,1.449,0.756,1.971,1.119c0.394,0.288,0.831,0.448,1.3,0.458c0.138,0,0.256-0.011,0.373-0.043h0.011
	c0.224-0.064,0.415-0.181,0.554-0.362c0.053-0.043,0.096-0.106,0.128-0.17c0.288-0.501,0.288-1.002,0-1.513
	c-0.287-0.511-0.767-0.969-1.438-1.374c-0.671-0.415-1.481-0.756-2.418-1.033c-0.948-0.266-1.918-0.405-2.919-0.405
	s-1.95,0.149-2.855,0.447c-0.586,0.192-1.14,0.448-1.63,0.788l-0.021,0.011c-0.213,0.117-0.405,0.266-0.597,0.426
	c-0.053,0.032-0.106,0.075-0.149,0.117c-0.171,0.149-0.341,0.298-0.501,0.469c-0.096,0.106-0.192,0.213-0.288,0.33
	c-0.032-0.043-0.064-0.096-0.107-0.138c-0.277-0.373-0.671-0.714-1.183-1.012c-0.66-0.415-1.47-0.756-2.418-1.033
	c-0.948-0.266-1.918-0.405-2.909-0.405c-1.002,0-1.95,0.149-2.855,0.447c-0.596,0.203-1.172,0.458-1.673,0.799
	c-0.011,0.011-0.011,0.021-0.011,0.021c-0.192,0.106-0.362,0.224-0.522,0.362c-0.064,0.043-0.139,0.106-0.203,0.16
	c-0.692,0.586-1.257,1.31-1.673,2.163s-0.629,1.811-0.629,2.855c0,1.151,0.181,2.131,0.554,2.93c0.362,0.81,0.884,1.492,1.555,2.067
	c0.661,0.586,1.46,1.097,2.376,1.545c0.927,0.448,1.918,0.874,2.994,1.3c0.575,0.234,1.161,0.511,1.758,0.842
	c0.586,0.33,1.119,0.725,1.587,1.183c0.48,0.458,0.852,0.98,1.151,1.577c0.288,0.586,0.426,1.246,0.426,1.982
	s-0.149,1.417-0.448,2.056c-0.298,0.607-0.671,1.119-1.151,1.555c-0.011,0.021-0.032,0.032-0.053,0.053
	c-0.341,0.309-0.714,0.565-1.129,0.788c0,0-0.011,0.011-0.021,0.011c-0.171,0.096-0.373,0.181-0.565,0.267
	c-0.639,0.266-1.3,0.394-1.982,0.394c-1.108,0-2.12-0.192-3.058-0.575c-0.927-0.373-1.79-0.831-2.578-1.353
	c-0.448-0.288-0.863-0.447-1.236-0.479c-0.202-0.011-0.394,0.032-0.575,0.128c-0.085,0.053-0.181,0.117-0.256,0.213
	c-0.011,0-0.011,0-0.021,0.011c-0.053,0.053-0.106,0.106-0.16,0.171c-0.341,0.469-0.341,1.023,0,1.651
	c0.341,0.629,1.076,1.236,2.206,1.811c0.767,0.362,1.619,0.671,2.578,0.927c0.959,0.245,1.939,0.352,2.941,0.33
	c1.257-0.021,2.418-0.245,3.484-0.65c0.383-0.138,0.735-0.309,1.076-0.501c0.011,0,0.011-0.01,0.011-0.01
	c0.224-0.128,0.426-0.277,0.618-0.426c0,0,0.011-0.01,0.021-0.01c0.053-0.053,0.106-0.096,0.16-0.149
	c0.011,0.01,0.021,0.021,0.032,0.021c0.16-0.106,0.32-0.213,0.469-0.32c0.341,0.266,0.767,0.533,1.278,0.788
	c0.757,0.362,1.619,0.671,2.578,0.927c0.959,0.245,1.939,0.352,2.93,0.33c1.257-0.021,2.429-0.245,3.484-0.65
	c0.405-0.149,0.788-0.33,1.151-0.543c0.01,0,0.01-0.011,0.01-0.011c0.213-0.128,0.405-0.266,0.586-0.415
	c0.011,0,0.011-0.011,0.011-0.011c0.245-0.138,0.469-0.288,0.682-0.458c0.107-0.075,0.203-0.16,0.298-0.256
	c0.767-0.725,1.353-1.577,1.779-2.557c0.416-0.991,0.629-2.056,0.629-3.207C55.721,80.555,55.572,79.639,55.284,78.851z
	 M52.152,83.815c-0.298,0.629-0.693,1.151-1.193,1.598l-0.01,0.011c-0.021,0.011-0.032,0.032-0.053,0.043
	c-0.341,0.309-0.724,0.565-1.14,0.788c0,0-0.032,0.011-0.043,0.021c-0.149,0.075-0.309,0.149-0.469,0.213
	c-0.65,0.266-1.311,0.394-1.992,0.394c-1.108,0-2.12-0.192-3.047-0.575c-0.671-0.266-1.3-0.575-1.886-0.916
	c-0.043-0.021-0.085-0.053-0.128-0.075c0.064-0.117,0.117-0.245,0.17-0.373c0.021-0.043,0.043-0.085,0.064-0.128
	c0.416-0.991,0.629-2.056,0.629-3.207c0-1.055-0.139-1.971-0.426-2.759c-0.298-0.788-0.714-1.481-1.268-2.088
	c-0.543-0.607-1.214-1.14-2.003-1.619c-0.788-0.469-1.684-0.927-2.685-1.374c-0.757-0.341-1.502-0.682-2.216-1.023
	c-0.725-0.341-1.364-0.714-1.918-1.097c-0.543-0.394-0.991-0.863-1.332-1.385c-0.341-0.522-0.511-1.151-0.511-1.886
	c0-1.183,0.394-2.152,1.193-2.919c0.106-0.106,0.213-0.192,0.33-0.266c0.011-0.011,0.032-0.021,0.043-0.043
	c0.011-0.011,0.011-0.011,0.021-0.011c0.011-0.011,0.011-0.021,0.011-0.021c0.756-0.533,1.694-0.799,2.813-0.799
	c0.831-0.021,1.651,0.149,2.44,0.533c0.788,0.383,1.438,0.756,1.971,1.119c0.192,0.138,0.384,0.245,0.597,0.32
	c0.117,0.053,0.245,0.085,0.373,0.106c-0.032,0.107-0.064,0.224-0.096,0.33c-0.128,0.511-0.192,1.055-0.192,1.609
	c0,1.151,0.192,2.131,0.554,2.93c0.373,0.81,0.884,1.492,1.555,2.067c0.671,0.586,1.46,1.097,2.387,1.545
	c0.916,0.448,1.917,0.874,2.994,1.3c0.575,0.234,1.161,0.511,1.747,0.842c0.597,0.33,1.119,0.725,1.598,1.183
	c0.469,0.458,0.852,0.98,1.14,1.577c0.288,0.586,0.437,1.246,0.437,1.982S52.45,83.176,52.152,83.815z"/>
</svg>
